<?xml version="1.0" standalone="no"?>
<!DOCTYPE svg PUBLIC "-//W3C//DTD SVG 1.1//EN" "http://www.w3.org/Graphics/SVG/1.1/DTD/svg11.dtd" >
<svg xmlns="http://www.w3.org/2000/svg">
<metadata>
Created by FontForge 20120731 at Wed Jul  5 11:30:44 2017
 By admin
</metadata>
<defs>
<font id="iconfont" horiz-adv-x="1024" >
  <font-face 
    font-family="iconfont"
    font-weight="500"
    font-stretch="normal"
    units-per-em="1024"
    panose-1="2 0 6 3 0 0 0 0 0 0"
    ascent="896"
    descent="-128"
    x-height="792"
    bbox="0 -132 1024 896"
    underline-thickness="0"
    underline-position="0"
    unicode-range="U+0078-E72D"
  />
<missing-glyph 
 />
    <glyph glyph-name=".notdef" 
 />
    <glyph glyph-name=".notdef" 
 />
    <glyph glyph-name=".null" horiz-adv-x="0" 
 />
    <glyph glyph-name="nonmarkingreturn" horiz-adv-x="341" 
 />
    <glyph glyph-name="x" unicode="x" horiz-adv-x="1001" 
d="M281 543q-27 -1 -53 -1h-83q-18 0 -36.5 -6t-32.5 -18.5t-23 -32t-9 -45.5v-76h912v41q0 16 -0.5 30t-0.5 18q0 13 -5 29t-17 29.5t-31.5 22.5t-49.5 9h-133v-97h-438v97zM955 310v-52q0 -23 0.5 -52t0.5 -58t-10.5 -47.5t-26 -30t-33 -16t-31.5 -4.5q-14 -1 -29.5 -0.5
t-29.5 0.5h-32l-45 128h-439l-44 -128h-29h-34q-20 0 -45 1q-25 0 -41 9.5t-25.5 23t-13.5 29.5t-4 30v167h911zM163 247q-12 0 -21 -8.5t-9 -21.5t9 -21.5t21 -8.5q13 0 22 8.5t9 21.5t-9 21.5t-22 8.5zM316 123q-8 -26 -14 -48q-5 -19 -10.5 -37t-7.5 -25t-3 -15t1 -14.5
t9.5 -10.5t21.5 -4h37h67h81h80h64h36q23 0 34 12t2 38q-5 13 -9.5 30.5t-9.5 34.5q-5 19 -11 39h-368zM336 498v228q0 11 2.5 23t10 21.5t20.5 15.5t34 6h188q31 0 51.5 -14.5t20.5 -52.5v-227h-327z" />
    <glyph glyph-name="more" unicode="&#xe69f;" 
d="M512 448q-27 0 -45.5 -18.5t-18.5 -45.5t18.5 -45.5t45.5 -18.5t45.5 18.5t18.5 45.5t-18.5 45.5t-45.5 18.5v0zM257 448q-27 0 -45.5 -18.5t-18.5 -45.5t18.5 -45.5t45 -18.5t45.5 18.5t19 45.5t-19 45.5t-45 18.5v0zM768 448q-27 0 -45.5 -18.5t-18.5 -45.5t18.5 -45.5
t45.5 -18.5t45.5 18.5t18.5 45.5t-18.5 45.5t-45.5 18.5v0z" />
    <glyph glyph-name="chilun" unicode="&#xe662;" 
d="M529 416q-49 0 -84 -35t-35 -84.5t35 -84.5t84 -35q10 0 21 2q7 1 11 7t3 13t-7 11t-13 3q-9 -2 -15 -2q-35 0 -60 25t-25 60.5t25 60t60 24.5t60 -24.5t25 -60.5q0 -6 -2 -15q-1 -7 3 -12.5t11 -7t12.5 2.5t6.5 11q2 12 2 21q0 50 -34.5 85t-83.5 35v0zM878 363
q-2 11 -12 14q-58 13 -87.5 64.5t-11.5 107.5q3 11 -6 18q-51 45 -115 67q-11 4 -18 -4q-40 -43 -99 -43t-99 43q-7 8 -18 4q-64 -22 -116 -67q-8 -7 -5 -18q18 -56 -11.5 -107.5t-87.5 -64.5q-10 -3 -13 -14q-6 -34 -6 -67t6 -67q3 -11 13 -13q58 -14 87.5 -65t11.5 -108
q-3 -10 5 -18q52 -44 116 -67q3 -1 6 -1q7 0 12 6q40 43 99 43t99 -43q7 -8 18 -5q64 23 115 67q9 8 6 18q-18 57 11.5 108t87.5 65q10 2 12 13q7 34 7 67t-7 67v0zM847 246q-64 -20 -97.5 -78t-18.5 -124q-39 -32 -86 -50q-49 46 -116 46t-116 -46q-47 18 -86 50
q15 66 -18 124q-34 58 -98 78q-4 26 -4 50.5t4 50.5q64 19 97.5 77t18.5 124q39 32 86 51q49 -47 116 -47t116 47q47 -19 86 -51q-15 -66 18.5 -124t97.5 -77q4 -26 4 -50.5t-4 -50.5v0z" />
    <glyph glyph-name="riyongbaihuo" unicode="&#xe63f;" 
d="M882.5 404q-25.5 0 -43.5 -13t-18 -32v-13h-116q-10 13 -29 30v185l152 69h48q13 0 22.5 9.5t9.5 23t-9.5 22.5t-22.5 9h-715q-13 0 -22.5 -9t-9.5 -22.5t9.5 -23t22.5 -9.5h48l152 -69v-185q-19 -18 -29 -30h-129v8q0 19 -18 32.5t-43.5 13.5t-43.5 -13.5t-18 -32.5
v-387q0 -18 18 -31.5t43.5 -13.5t43.5 13.5t18 31.5v9h129q33 -44 81.5 -69t105 -25t105 25t81.5 69h116v-4q0 -19 18 -32.5t43.5 -13.5t43.5 13.5t18 32.5v387q0 19 -18 32t-43.5 13zM673 630l-109 -50q-18 -8 -45.5 -8t-44.5 8l-110 50h309zM447 522q31 -14 71.5 -14
t71.5 14l22 10v-113q-47 21 -93.5 21t-93.5 -21v113zM880 0q-7 18 -23.5 29t-36.5 11h-115q-33 0 -52 -26q-24 -32 -59.5 -50t-75 -18t-75 17.5t-59.5 50.5q-19 26 -51 26h-130q-20 0 -36 -11t-23 -29v322q7 -18 23 -29t36 -11h129q33 0 52 26q24 32 59.5 50t75 18t75 -18
t59.5 -50q19 -26 52 -26h116q20 0 36 11t23 29v-322v0z" />
    <glyph glyph-name="jiaofa" unicode="&#xe62d;" 
d="M654 468q0 -9 -6.5 -15.5t-14.5 -6.5h-336q-11 0 -18 6.5t-7 15.5v275q0 9 6.5 15.5t16.5 6.5h336q10 0 16.5 -6.5t6.5 -15.5v-275v0zM590 679q0 9 -6.5 16t-16.5 7h-210q-9 0 -15.5 -7t-6.5 -16v-147q0 -10 6.5 -16.5t15.5 -6.5h210q10 0 16.5 6.5t6.5 16.5v147v0z
M591 -109q0 -9 -6.5 -16t-16.5 -7h-213q-9 0 -16 7t-7 16v596q0 10 7 16.5t16 6.5h213q10 0 16.5 -6.5t6.5 -16.5v-596zM527 423q0 9 -6.5 15.5t-16.5 6.5h-81q-9 0 -15.5 -6.5t-6.5 -15.5v-466q0 -10 6.5 -16.5t15.5 -6.5h81q10 0 16.5 6.5t6.5 16.5v466zM783 212
q0 -10 -6.5 -16.5t-16.5 -6.5h-211q-9 0 -15.5 6.5t-6.5 16.5v148q0 9 6.5 15.5t15.5 6.5h211q10 0 16.5 -6.5t6.5 -15.5v-148zM718 295q0 10 -6.5 16.5t-15.5 6.5h-84q-9 0 -15.5 -6.5t-6.5 -16.5v-18q0 -10 6.5 -16.5t15.5 -6.5h84q9 0 15.5 6.5t6.5 16.5v18z" />
    <glyph glyph-name="close" unicode="&#xe72d;" 
d="M680 576l-168 -169l-168 168l-24 -23l168 -168l-168 -168l24 -23l168 167l168 -168l24 23l-169 169l169 168z" />
    <glyph glyph-name="chandizhicai" unicode="&#xe650;" 
d="M806 -63h-588l-141 386h870zM246 -22h532l111 304h-754zM349 201h41v-162h-41v162zM210 416l23 -33l-133 -93l-23 33zM492 201h40v-162h-40v162zM634 201h41v-162h-41v162zM316 349q-68 113 -68 177q0 109 77.5 186.5t186.5 77.5t186.5 -77.5t77.5 -186.5q0 -64 -68 -177
h46q63 110 63 177q0 126 -89.5 215.5t-215.5 89.5t-215.5 -89.5t-89.5 -215.5q0 -67 63 -177h46zM512 404q-59 0 -100.5 42t-41.5 100.5t41.5 100.5t100.5 42t100.5 -42t41.5 -100.5t-41.5 -100.5t-100.5 -42zM512 648q-42 0 -72 -29.5t-30 -71.5t30 -72t72 -30t72 30t30 72
t-30 71.5t-72 29.5zM947 323l-23 -33l-133 93l23 33z" />
    <glyph glyph-name="z-hammer" unicode="&#xe693;" 
d="M535 815l219 -219l-179 -179l350 -351l-77 -76l-350 350l-180 -180l-219 220zM535 852q-15 0 -26 -11l-436 -435q-11 -11 -11 -26.5t11 -25.5l219 -220q11 -10 26.5 -10t25.5 10l154 154l324 -324q11 -11 26 -11t26 11l77 76q11 11 11 26.5t-11 25.5l-324 325l153 153
q11 11 11 26t-11 26l-219 219q-11 11 -26 11v0zM498 -66q0 -7 -5.5 -12.5t-12.5 -5.5h-399q-8 0 -13.5 5.5t-5.5 12.5v0q0 8 5.5 13.5t13.5 5.5h399q7 0 12.5 -5.5t5.5 -13.5v0z" />
    <glyph glyph-name="loada" unicode="&#xe610;" 
d="M513 840q-122 1 -226.5 -58t-166.5 -161.5t-66 -224.5q3 106 54 195.5t135.5 141t183.5 51.5q101 -1 186.5 -55t135 -146t48.5 -201q0 -35 25 -60.5t60.5 -25.5t60.5 25t26 60q0 93 -36 178t-97 146.5t-145.5 98t-177.5 36.5v0z" />
    <glyph glyph-name="nianfen" unicode="&#xe60f;" 
d="M956 806h-153v84h-76v-84h-432v84h-76v-84h-151q-28 0 -48 -20t-20 -48v-794q0 -28 20 -48t48 -20h888q28 0 48 20t20 48v794q0 28 -20 48t-48 20zM967 -54q0 -11 -11 -11h-888q-11 0 -11 11v538h908v58h-906v196q0 11 11 11h151v-74h76v74h432v-74h76v74h153
q11 0 11 -11v-792h-2zM258 329zM203 329q0 -23 16 -39.5t39 -16.5t39 16.5t16 39.5t-16 39t-39 16t-39 -16t-16 -39zM512 329zM457 329q0 -23 16 -39.5t39 -16.5t39 16.5t16 39.5t-16 39t-39 16t-39 -16t-16 -39zM768 329zM711 329q0 -23 16 -39.5t39 -16.5t39 16.5t16 39.5
t-16 39t-39 16q-22 0 -38.5 -16.5t-16.5 -38.5zM258 116zM203 116q0 -23 16 -39.5t39 -16.5t39 16.5t16 39.5t-16 39t-39 16t-39 -16t-16 -39zM512 116zM457 116q0 -23 16 -39.5t39 -16.5t39 16.5t16 39.5t-16 39t-39 16t-39 -16t-16 -39zM768 116zM711 116q0 -23 16 -39.5
t39 -16.5t39 16.5t16 39.5t-16 39t-39 16q-22 0 -38.5 -16.5t-16.5 -38.5v0z" />
    <glyph glyph-name="uniE609" unicode="&#xe609;" 
d="M678 397l-365 380q-11 10 -11 24.5t10.5 25t25 10.5t24.5 -10l401 -405q11 -10 11 -25t-11 -25l-401 -405q-10 -10 -24.5 -10t-25 10t-10.5 25t11 25z" />
    <glyph glyph-name="back" unicode="&#xe608;" 
d="M711 17q11 -10 11 -25t-10.5 -25t-25 -10.5t-24.5 10.5l-401 405q-11 10 -11 24.5t11 25.5l401 405q10 10 24.5 10t25 -10.5t10.5 -25t-11 -24.5l-365 -380z" />
    <glyph glyph-name="uniE604" unicode="&#xe604;" 
d="M398 660l275 -275l-275 -274v549z" />
    <glyph glyph-name="uniE606" unicode="&#xe606;" 
d="M236 270l275 275l274 -275h-549z" />
    <glyph glyph-name="search" unicode="&#xe607;" 
d="M900 14l-176 176q90 100 90 234q0 95 -46.5 175t-126.5 126.5t-174.5 46.5t-175 -46.5t-127 -126.5t-46.5 -174.5t46.5 -175t127 -127t174.5 -46.5q137 0 238 93l176 -176q10 -10 20 0q4 4 4 10t-4 11zM147 424q0 132 93.5 225.5t225.5 93.5t225.5 -93.5t93.5 -225.5
t-93.5 -225.5t-225.5 -93.5t-225.5 93.5t-93.5 225.5zM377 626q-3 0 -5 -2v1q-79 -38 -112 -118q-2 -2 -2 -5q0 -6 4.5 -10.5t10.5 -4.5q8 0 12 7h1v1q0 1 1 2q29 68 96 101q9 3 9 13q0 6 -4.5 10.5t-10.5 4.5zM695 415q0 6 -4.5 10.5t-10.5 4.5t-10 -4.5t-4 -10.5
q-2 -79 -59 -135.5t-138 -56.5h-1q-5 -1 -9 -5t-4 -10t4 -10t10 -4q92 0 157.5 64.5t67.5 155.5z" />
    <glyph glyph-name="duigou" unicode="&#xe605;" 
d="M487 309q10 -10 10 -24.5t-10 -24.5q-10 -11 -24.5 -11t-25.5 11l-99 99q-10 10 -10 25t10 25t24.5 10t25.5 -10zM686 508q10 -10 10 -24.5t-10 -24.5l-199 -199q-10 -11 -24.5 -11t-25.5 11q-10 10 -10 24.5t10 24.5l199 199q11 11 25.5 11t24.5 -11z" />
    <glyph glyph-name="uniE603" unicode="&#xe603;" 
d="M533 111l-276 307h510z" />
    <glyph glyph-name="uniE602" unicode="&#xe602;" 
d="M141 216l34 -34l338 339l339 -339l34 34l-373 372z" />
    <glyph glyph-name="uniE601" unicode="&#xe601;" 
d="M344 758l-34 -34l339 -339l-339 -338l34 -34l372 372z" />
    <glyph glyph-name="uniE600" unicode="&#xe600;" 
d="M883 554l-34 34l-338 -338l-339 338l-34 -34l373 -372z" />
    <glyph glyph-name="uniE60e" unicode="&#xe60e;" 
d="M716 -62q-68 0 -179 69q-105 65 -206 163l-21 21q-98 100 -163 206q-68 111 -68 179q0 66 61 147q11 16 24.5 31t38.5 33t44 18q25 0 61 -37q27 -28 57 -71q28 -41 48 -78q23 -43 23 -64q0 -27 -29 -47q-12 -9 -42 -21q-25 -11 -31 -16q5 -21 36 -66q36 -53 79 -97
q43 -42 96 -79q45 -30 66 -35q5 6 16 31q13 30 21 42q20 28 47 28q22 0 65 -22q37 -20 78 -48q43 -31 70 -57q37 -36 37 -61q0 -20 -17.5 -44.5t-33 -38t-30.5 -24.5q-82 -62 -148 -62zM367 206q96 -94 197 -155q99 -61 152 -61q48 0 115 49q28 21 46 42q14 16 17 25
q-4 9 -27 30.5t-63 49.5q-37 25 -69 42q-28 14 -39 16q-3 -2 -8 -10t-14 -29q-11 -26 -18 -37q-17 -26 -42 -26h-1q-31 1 -96 45q-58 39 -104 85h-1q-46 47 -85 104q-44 65 -44 97q-1 25 25 42q11 7 37 19q21 9 29 13.5t10 8.5q-1 11 -16 39q-17 32 -42 68
q-28 41 -49.5 63.5t-30.5 27.5q-9 -3 -25 -17q-21 -18 -42 -47q-49 -66 -49 -114q0 -54 61 -152q62 -101 156 -197z" />
    <glyph glyph-name="uniE60d" unicode="&#xe60d;" 
d="M811 213q-33 0 -61 -15t-46 -42l-291 162q14 32 14 66q0 45 -22 84l220 135q39 -48 100 -48q53 0 90.5 37.5t37.5 90.5t-37.5 90.5t-90.5 37.5t-90.5 -37.5t-37.5 -90.5q0 -22 8 -42l-226 -139q-50 53 -123 53q-71 0 -121 -50t-50 -121t50 -121t121 -50q41 0 76.5 18.5
t59.5 49.5l295 -164q-4 -16 -4 -32q0 -53 37.5 -90.5t90.5 -37.5t90.5 37.5t37.5 90.5t-37.5 90.5t-90.5 37.5zM725.5 768q35.5 0 60.5 -25t25 -60.5t-25 -60.5t-60.5 -25t-60.5 25t-25 60.5t25 60.5t60.5 25zM256 256q-53 0 -90.5 37.5t-37.5 90.5t37.5 90.5t90.5 37.5
t90.5 -37.5t37.5 -90.5t-37.5 -90.5t-90.5 -37.5zM810.5 0q-35.5 0 -60.5 25t-25 60.5t25 60.5t60.5 25t60.5 -25t25 -60.5t-25 -60.5t-60.5 -25z" />
    <glyph glyph-name="uniE60c" unicode="&#xe60c;" 
d="M232 -41l99 316l-254 217h320l115 294l129 -294h306l-240 -217l103 -317l-296 199z" />
    <glyph glyph-name="uniE60b" unicode="&#xe60b;" 
d="M232 -41l99 316l-254 217h320l115 294l129 -294h306l-240 -217l103 -317l-296 199zM513 196l239 -159l-81 247l196 177h-247l-106 242l-95 -242h-258l207 -176l-79 -249z" />
    <glyph glyph-name="uniE60a" unicode="&#xe60a;" 
d="M956.5 407q-4.5 15 -20.5 15h-309l-95 294q-5 15 -21 15t-20 -15l-96 -294h-309q-16 0 -20.5 -15t7.5 -24l250 -181l-95 -294q-5 -15 7.5 -24.5t25.5 -0.5l250 182l250 -182q6 -4 13 -4t12 4q13 10 8 25l-95 294l250 181q12 9 7.5 24zM661 227q-13 -9 -8 -24l80 -245
l-209 151q-6 4 -13 4v527l80 -246q5 -15 20 -15h259z" />
    <glyph glyph-name="fadongjixitong" unicode="&#xe62f;" 
d="M957 549h-83q-22 0 -39 -13q-21 13 -38 13h-29v44q0 27 -19.5 47.5t-48.5 20.5h-149v67h160q14 0 23 9t9 23.5t-9 23.5t-23 9h-384q-15 0 -23.5 -9t-8.5 -23.5t8.5 -23.5t23.5 -9h160v-70h-151q-19 0 -35 -10.5t-26 -28.5l-25 -44h-54q-29 0 -48.5 -19.5t-19.5 -48.5
v-105h-64v115q0 15 -9 24t-23.5 9t-23 -9t-8.5 -24v-320q0 -14 9 -23t23.5 -9t23 9t8.5 23v138h64v-131q0 -27 19.5 -47.5t48.5 -20.5h57l96 -96q19 -19 48 -19h400q21 0 38 13q21 -13 39 -13h83q27 0 47 19.5t20 48.5v393q0 27 -19.5 47t-47.5 20zM960 92v0l-86 -3
q-3 0 -3 3v48q0 14 -9 23t-24 9h-6q-14 0 -23 -9t-9 -23v-48q0 -3 -3 -3h-403l-106 108q-10 10 -23 10h-70q-2 0 -2.5 0.5t-0.5 2.5v301q0 3 3 3h74q18 0 29 16l35 63l3 4h365l3 -4v-76q0 -15 9 -23.5t23 -8.5h61q3 0 3 -4v-48q0 -14 9 -23t23 -9h6q15 0 24 9t9 23v48
q0 4 3 4h83q3 0 3 -4q0 1 0 -56v-142.5v-126v-64.5z" />
    <glyph glyph-name="bianjiICONCopy" unicode="&#xe61d;" horiz-adv-x="1126" 
d="M954 325v-326h-291v326h291zM954 383h-291q-27 0 -43 -16t-16 -42v-326q0 -26 16 -42t43 -16h291q26 0 42 16t16 42v326q0 25 -17.5 41.5t-40.5 16.5zM488 325v-326h-291v326h291zM488 383h-291q-27 0 -43 -16t-16 -42v-326q0 -26 16 -42t43 -16h291q26 0 42 16t16 42
v326q0 25 -17.5 41.5t-40.5 16.5zM954 756v-256h-757v256h757zM954 815h-757q-27 0 -43 -16.5t-16 -42.5v-256q0 -26 16 -42t43 -16h757q26 0 42 16t16 42v256q0 26 -17.5 42.5t-40.5 16.5z" />
    <glyph glyph-name="shebei1" unicode="&#xe611;" 
d="M244 726h544q10 0 17.5 8.5t7.5 20t-7.5 20t-17.5 8.5h-544q-10 0 -17 -8.5t-7 -20t7 -20t17 -8.5zM343 839h346q10 0 17.5 8.5t7.5 20t-7.5 20t-17.5 8.5h-346q-10 0 -17.5 -8.5t-7.5 -20t7.5 -20t17.5 -8.5zM195 613h643q10 0 17 8.5t7 20t-7 20t-17 8.5h-643
q-10 0 -17.5 -8.5t-7.5 -20t7.5 -20t17.5 -8.5zM96 501h840q11 0 18 8t7 19.5t-7 20t-18 8.5h-840q-10 0 -17.5 -8.5t-7.5 -20t7.5 -19.5t17.5 -8zM977 444h-921q-14 0 -24 -11.5t-10 -27.5v-487q0 -16 10 -27.5t24 -11.5h921q14 0 24 11.5t10 27.5v487q0 16 -10 27.5
t-24 11.5zM961 -64h-890v452h890v-452zM551 49q47 0 80 33t33 79.5t-33 80t-80 33.5t-80 -33.5t-33 -80t33 -79.5t80 -33zM550.5 218q23.5 0 40 -16.5t16.5 -40t-16.5 -40t-40 -16.5t-40 16.5t-16.5 40t16.5 40t40 16.5zM833 49q47 0 80 33t33 79.5t-33 80t-80 33.5
t-80 -33.5t-33 -80t33 -79.5t80 -33zM833 218q23 0 39.5 -16.5t16.5 -40t-16.5 -40t-39.5 -16.5t-39.5 16.5t-16.5 40t16.5 40t39.5 16.5zM127.5 49q11.5 0 20 8t8.5 20v0v169q0 12 -8.5 20.5t-20 8.5t-20 -8.5t-8.5 -20.5v0v-169q0 -12 8.5 -20t20 -8zM297 49q12 0 20 8
t8 20v0v169q0 12 -8 20.5t-20 8.5t-20 -8.5t-8 -20.5v0v-169q0 -12 8 -20t20 -8z" />
    <glyph glyph-name="buqi1" unicode="&#xe612;" 
d="M417 71h-84q-9 0 -17 8t-8 19v117l26 90q6 12 16 19q11 7 20 7h31l-5 4q-4 5 -6 8q0 1 -2 9v155q0 9 7 17t19 8h160q12 0 19 -6q8 -7 8 -21v-152v-1q-2 -5 -2 -7l-5 -8l-2 -2l-4 -4h38q13 0 18 -7q4 -6 4 -17v-9h19q6 -1 9 -5q3 -2 5 -8v-3v-30q-1 -5 -4 -8t-9 -4h-20
v-10q0 -7 -5 -14q-4 -4 -8 -6t-6 -2h-3h-156l3 -1q3 -3 5 -6l1 -2l10 -40l-1 -2q-1 -7 -3 -9l-7 -7l-3 -1l-26 -6l-3 -12v-24q0 -11 -7 -19t-22 -8zM328 212v-114q0 -2 2 -5l4 -2h83q6 0 8 2t2 5v27l15 90l2 2q3 4 7 7t11 5h2h163q1 0 1 1l1 2v29h33v18h-33v29v3h-91l40 38
q1 2 3 5l1 2v150q0 4 -1 5q-3 2 -7 2h-159q-3 0 -4 -2l-3 -6v-149q0 -2 1 -4q0 -1 0.5 -1.5t1.5 -0.5l43 -39h-82q-7 -1 -12 -4q-3 -2 -8 -10zM458 191l-5 -35l15 4l-7 31h-3zM781 214l-79 25l6 19l79 -26zM789 270h-83v20h83v-20zM701 302l-6 19l79 25l6 -19zM527 319h-63
l-33 29q-5 5 -7 9q-1 2 -3 10l-1 3v111q1 9 6 13q7 6 13 6h109q12 0 17 -8q3 -5 3 -12v-111q-2 -8 -3 -11q-2 -5 -7 -10zM472 339h48l24 23q0 1 1.5 2.5t1.5 2.5l0.5 1.5t0.5 2.5v108v0h-107q0 -1 -1 -1v-107q1 -1 1.5 -3l0.5 -2l2 -4z" />
  </font>
</defs>
</svg>
